PathFileType	4	(X/Y/Z)	C:/ViconProjects/foot_20160225/trc/2_test02_dynamic.trc
DataRate	CameraRate	NumFrames	NumMarkers	Units	OrigDataRate	OrigDataStartFrame	OrigNumFrames
120.000000	120.000000	6	39	mm	120.000000	51	406
Frame#	Time	LFWT			RFWT			VBWT			LKNE			LANK			LMT5			LMT1			LHEL			LTOE			RKNE			RANK			RMT5			RMT1			RHEL			RTOE			T10			FHEAD			THEAD			RHEAD			LBSH			LELB			LOWR			RBSH			RELB			ROWR			LTHI			RTHI			LSHAN			RSHAN			LIHEL			LOHEL			RIHEL			ROHEL			LMT3			LNAVI			LCUNE			RMT3			RNAVI			RCUNE			
		X0	Y0	Z0	X1	Y1	Z1	X2	Y2	Z2	X3	Y3	Z3	X4	Y4	Z4	X5	Y5	Z5	X6	Y6	Z6	X7	Y7	Z7	X8	Y8	Z8	X9	Y9	Z9	X10	Y10	Z10	X11	Y11	Z11	X12	Y12	Z12	X13	Y13	Z13	X14	Y14	Z14	X15	Y15	Z15	X16	Y16	Z16	X17	Y17	Z17	X18	Y18	Z18	X19	Y19	Z19	X20	Y20	Z20	X21	Y21	Z21	X22	Y22	Z22	X23	Y23	Z23	X24	Y24	Z24	X25	Y25	Z25	X26	Y26	Z26	X27	Y27	Z27	X28	Y28	Z28	X29	Y29	Z29	X30	Y30	Z30	X31	Y31	Z31	X32	Y32	Z32	X33	Y33	Z33	X34	Y34	Z34	X35	Y35	Z35	X36	Y36	Z36	X37	Y37	Z37	X38	Y38	Z38	
51	0.425000	1553.226563	60.984180	939.341980	1578.651245	347.176300	929.115540	1791.048706	178.183151	942.783325	1433.574829	24.666651	496.435089	1428.986694	48.646790	82.667381	1336.457397	17.534620	74.327621	1284.171387	78.105309	93.072937	1488.221802	110.592003	57.265369	1251.765259	61.047409	96.856812	1714.363770	328.009735	451.391998	1854.761475	309.741852	72.158577	1752.399902	339.572418	38.156891	1705.871094	257.071136	49.255760	1921.475830	246.297806	52.952671	1664.662964	275.472565	41.785542	1740.672119	144.251556	1278.491333	1401.321533	215.522308	1603.208618	1500.979492	222.754135	1700.252441	1617.064819	221.355774	1645.230103	1574.590576	2.366650	1408.445557	1698.259521	-125.320999	1127.513428	1667.223267	-154.826157	870.951050	1583.632080	408.699188	1401.334351	1594.486328	530.516357	1084.436523	1407.127686	522.145508	900.832642	1415.858032	85.247299	679.594238	1610.600586	286.524292	546.651672	1392.917725	99.769127	360.412720	1763.580200	242.009827	227.358505	1449.315430	138.083679	66.603661	1465.322021	67.680023	58.957081	1879.502930	217.122849	52.294979	1892.031006	290.697052	51.103401	1297.764771	44.435520	87.170227	1368.903564	128.375610	88.982597	1392.347900	31.064400	59.922169	1712.515259	294.839783	43.643829	1802.411743	219.686264	58.346199	1818.346802	318.503052	39.366791
52	0.433333	1542.663940	60.779228	936.752075	1569.910522	347.361389	926.726074	1780.778687	177.635345	940.399231	1422.868774	26.285851	494.212311	1403.869751	44.960270	84.586189	1306.229492	16.171700	76.913490	1254.110840	78.017052	97.165070	1456.963257	110.227570	51.681782	1222.469604	60.730251	102.951668	1709.453003	328.214417	450.032959	1853.152100	308.455933	71.663528	1752.248413	339.436890	38.044239	1705.805420	257.029846	49.107269	1921.204102	245.890610	54.031940	1664.302979	275.788239	41.195309	1730.931396	144.172440	1276.046143	1390.876221	215.128067	1601.589966	1490.869629	222.730957	1697.845947	1607.071655	221.020752	1642.853149	1564.880249	2.000630	1406.198242	1691.283325	-125.605942	1126.869751	1663.558960	-156.942108	870.206726	1573.181274	408.195984	1399.111694	1581.058716	531.277283	1082.356323	1389.708252	521.836853	902.323120	1405.541748	86.142113	676.100281	1603.565796	286.912720	543.909119	1376.690063	100.616783	360.209778	1761.670166	241.864319	226.471008	1419.424316	137.326538	64.568748	1434.967529	66.189583	56.117470	1879.204468	216.870651	52.926411	1891.960815	290.450562	52.204540	1268.085327	43.493000	91.313011	1339.329956	127.688469	89.885818	1362.544067	29.188141	61.091301	1712.328735	295.072601	43.455540	1801.424927	220.169189	58.346111	1817.903931	318.001678	39.124390
53	0.441667	1532.935059	61.460178	934.422363	1559.319458	347.417694	924.907288	1770.491455	176.973007	938.043701	1412.210205	27.785040	491.609833	1374.939087	44.827579	84.458252	1276.896606	15.991330	80.228043	1226.955078	77.785423	103.598778	1427.253662	109.164726	48.755840	1196.233765	61.935280	111.726547	1704.630615	328.434174	449.131195	1851.391724	307.601349	71.777443	1752.244385	339.429718	37.957710	1705.798218	257.043213	48.966808	1920.966797	245.487122	55.307640	1664.042847	276.099335	40.935902	1720.937988	144.156189	1273.654297	1381.515137	214.458786	1598.857910	1480.979614	222.410507	1695.254395	1596.971069	220.751373	1640.283447	1555.544067	1.692940	1403.941895	1684.287720	-125.640663	1125.915283	1660.014404	-159.116089	869.160339	1562.815430	407.626282	1396.395752	1567.922729	531.724426	1080.409790	1373.507324	521.398804	903.903198	1396.712769	86.148117	671.924377	1597.358398	287.454376	541.911926	1361.383789	101.272881	360.210480	1758.712891	242.085464	226.415726	1390.152954	136.373505	62.640339	1405.382324	65.346130	54.018360	1878.601563	216.643585	53.777302	1891.497559	290.156067	53.198631	1240.419556	43.279961	96.454201	1311.284912	126.520271	91.072113	1333.828735	27.169870	62.892540	1712.133179	295.303070	43.310871	1800.883057	219.998901	58.591068	1817.936279	317.932617	39.231369
54	0.450000	1520.796997	61.196510	932.105896	1549.551392	346.934692	923.387756	1760.093140	176.524994	935.561218	1401.906738	29.328279	489.123718	1347.783447	43.861092	84.448837	1250.350342	15.468800	85.102867	1201.041870	77.415604	108.494476	1399.817017	107.961838	47.171261	1170.028198	61.142521	117.712082	1699.213989	328.028259	448.117462	1851.019775	307.556793	72.385330	1752.270264	339.398346	37.902599	1705.781250	257.065308	48.885181	1920.548706	245.134018	56.794441	1664.275024	275.889038	40.769630	1710.962891	143.665268	1271.143677	1370.018433	214.188416	1596.069336	1470.953491	221.637756	1692.955200	1586.868774	220.073898	1637.957031	1546.024292	0.978660	1401.495361	1676.924805	-126.130058	1124.715576	1656.415649	-161.215973	867.952454	1552.037476	407.187225	1393.764648	1554.496948	531.429077	1078.398682	1357.243164	520.973083	905.325806	1386.177612	86.816483	668.305481	1589.969116	288.267883	540.125549	1346.143188	101.933418	359.989716	1756.335571	242.100418	225.833221	1362.476196	134.594666	61.491070	1377.031128	63.962521	53.154930	1878.184326	216.442276	54.915310	1891.278564	290.103485	54.650719	1213.835449	43.137020	101.050423	1285.562134	125.266876	92.611763	1304.856079	27.685530	63.694641	1712.704712	294.558411	42.963779	1800.576416	219.968765	58.777500	1817.797241	317.857391	39.323978
55	0.458333	1510.065308	61.389172	929.600403	1539.889771	347.578186	920.900574	1749.393677	175.966675	933.113708	1391.597290	30.405861	486.733856	1322.260620	43.482559	84.889481	1223.493408	15.424980	88.159500	1176.519653	77.578323	113.247208	1373.326904	104.842949	44.931229	1145.858032	61.676769	123.404907	1693.896851	328.440735	447.229950	1850.663452	307.809937	73.351372	1751.703369	339.821106	37.890900	1705.762207	257.135895	48.662220	1920.152954	245.158356	58.592312	1663.917236	276.222717	40.509369	1701.016357	143.501648	1268.442749	1360.913940	213.405396	1594.261963	1460.724609	221.553253	1690.467407	1576.528564	219.750031	1635.498291	1536.320557	0.109970	1399.051758	1669.563843	-126.887123	1123.762939	1652.238159	-163.305969	866.748962	1541.573242	406.459595	1391.095703	1540.673950	531.830322	1076.035278	1341.301392	520.570862	906.023621	1376.769409	87.606773	663.924561	1583.309570	288.696533	538.082825	1330.863647	102.754333	359.896820	1753.963257	242.559418	225.086838	1336.626099	133.219543	60.982449	1350.250366	63.820049	52.064640	1877.061523	217.151154	56.096828	1890.949951	289.874634	55.977619	1189.370483	43.244629	105.841164	1260.461792	125.363457	94.746010	1278.853027	26.739889	65.791496	1712.637939	294.700409	42.782742	1800.265381	219.945663	59.113480	1817.895020	317.905975	39.648170
56	0.466667	1499.096191	61.141628	927.166199	1529.685303	347.289368	918.629761	1738.658081	174.922668	930.493103	1381.275391	31.182760	484.861786	1298.648804	42.911831	85.328957	1200.051636	14.713110	91.213173	1154.559937	76.650787	117.511932	1350.377319	104.224632	45.974651	1122.698975	61.710449	126.857620	1688.489136	328.595367	445.968231	1850.697632	307.783295	75.176338	1752.657593	338.935547	37.443459	1705.665039	257.189209	48.520729	1919.651978	244.862534	60.497730	1663.807617	276.434723	40.363121	1690.656494	142.958588	1265.908081	1350.197144	212.839737	1591.578857	1450.314697	220.700287	1688.356445	1566.285400	218.961075	1633.176880	1526.455200	-0.521260	1397.054443	1661.323242	-127.466103	1122.389648	1647.275146	-165.391815	865.792053	1530.610229	405.766266	1388.755981	1527.873657	532.020630	1073.973511	1325.933960	519.706787	907.220459	1366.576416	87.892563	659.624817	1576.475342	289.187531	536.016113	1316.805908	103.270157	359.667053	1749.790894	242.800247	224.711334	1312.821289	132.561035	60.950790	1318.772583	68.396896	44.583321	1876.399170	217.016754	57.562000	1890.080566	289.636719	57.757351	1166.204712	43.728432	110.041946	1238.675293	124.679459	96.148773	1254.641724	26.675011	67.459396	1712.564575	294.723846	42.689369	1798.758057	220.018250	60.136921	1817.859131	317.947357	40.020672
